<?xml version="1.0" encoding="UTF-8" standalone="no"?>
<!-- Created with Inkscape (http://www.inkscape.org/) -->

<svg
   width="80.951454mm"
   height="22.421844mm"
   viewBox="0 0 80.951454 22.421844"
   version="1.1"
   id="svg1"
   inkscape:version="1.3.1 (9b9bdc1480, 2023-11-25, custom)"
   sodipodi:docname="logo.svg"
   xmlns:inkscape="http://www.inkscape.org/namespaces/inkscape"
   xmlns:sodipodi="http://sodipodi.sourceforge.net/DTD/sodipodi-0.dtd"
   xmlns="http://www.w3.org/2000/svg"
   xmlns:svg="http://www.w3.org/2000/svg">
  <sodipodi:namedview
     id="namedview1"
     pagecolor="#ffffff"
     bordercolor="#000000"
     borderopacity="0.25"
     inkscape:showpageshadow="2"
     inkscape:pageopacity="0.0"
     inkscape:pagecheckerboard="0"
     inkscape:deskcolor="#d1d1d1"
     inkscape:document-units="mm"
     inkscape:zoom="2.9184343"
     inkscape:cx="143.05616"
     inkscape:cy="70.757117"
     inkscape:window-width="1920"
     inkscape:window-height="1025"
     inkscape:window-x="0"
     inkscape:window-y="0"
     inkscape:window-maximized="1"
     inkscape:current-layer="layer1" />
  <defs
     id="defs1">
    <clipPath
       clipPathUnits="userSpaceOnUse"
       id="clipPath8">
      <path
         d="M 0,841.89 H 595.276 V 0 H 0 Z"
         transform="translate(-147.4156,-449.12311)"
         id="path8" />
    </clipPath>
    <clipPath
       clipPathUnits="userSpaceOnUse"
       id="clipPath10">
      <path
         d="M 0,841.89 H 595.276 V 0 H 0 Z"
         transform="matrix(1,0,-0.17632955,-1,-49.707138,400.15341)"
         id="path10" />
    </clipPath>
  </defs>
  <g
     inkscape:label="Layer 1"
     inkscape:groupmode="layer"
     id="layer1"
     transform="translate(-89.958333,-73.025003)">
    <path
       id="path3"
       d="m 112.36233,73.212577 -8.67481,7.138458 h 18.25308 l 9.21667,-7.138458 z"
       style="fill:#4db856;fill-opacity:1;fill-rule:nonzero;stroke:none;stroke-width:0.352778" />
    <path
       id="path4"
       d="m 96.825928,87.845376 7.951612,-6.415616 h 15.81326 l -7.50005,6.415616 z"
       style="fill:#178140;fill-opacity:1;fill-rule:nonzero;stroke:none;stroke-width:0.352778" />
    <path
       id="path5"
       d="m 97.368077,89.110436 -7.409744,6.234994 h 13.729407 l 7.68632,-6.234994 z"
       style="fill:#024e2a;fill-opacity:1;fill-rule:nonzero;stroke:none;stroke-width:0.352778" />
    <path
       id="path6"
       d="m 145.48636,85.134101 -4.29225,0.09031 -8.81239,-8.132938 -22.72382,18.253779 h -4.56283 l 27.28665,-22.320249 6.73418,6.317192 v -2.4765 h 3.47733 v 5.738636 z"
       style="fill:#000000;fill-opacity:1;fill-rule:nonzero;stroke:none;stroke-width:0.352778" />
    <path
       id="path7"
       d="m 0,0 c 7.305,-6.797 14.611,-13.594 21.916,-20.391 2.177,0.043 4.354,0.086 6.532,0.129 -8.325,7.684 -16.65,15.368 -24.974,23.052"
       style="fill:#808285;fill-opacity:1;fill-rule:nonzero;stroke:none"
       transform="matrix(0.35277776,0,0,-0.35277776,131.15738,78.076782)"
       clip-path="url(#clipPath8)" />
    <path
       id="path9"
       d="m 14.07445,-8.7082797 7.525826,-16.9335933 h 3.375 l -0.0022,25.64062456 h -3.515625 l -4.9e-5,-19.20703156 0.174934,1.125 -6.299153,14.5195316 H 12.825332 L 6.5088549,-17.719998 6.6800207,-19.20828 6.6800689,-0.00124844 H 3.1761627 l 0.00224,-25.64062456 h 3.3632812 z m 25.720528,8.97656251 c -1.813477,0 -3.396831,-0.38964843 -4.753511,-1.171875 -1.351854,-0.78808591 -2.396218,-1.89257811 -3.139468,-3.31640621 -0.742734,-1.4208985 -1.116639,-3.0761719 -1.122231,-4.96875 l 0.0079,-7.2656246 c -0.0018,-1.904297 0.370333,-3.56543 1.113984,-4.980469 0.748477,-1.420899 1.796426,-2.522461 3.143848,-3.304688 1.353798,-0.779297 2.936919,-1.171875 4.750395,-1.171875 1.804688,0 3.38563,0.392578 4.741793,1.171875 1.356679,0.782227 2.406386,1.883789 3.14912,3.304688 0.74756,1.415039 1.122498,3.076172 1.124298,4.980469 l -0.0079,7.2656246 c 0.0056,1.8925781 -0.367573,3.5478515 -1.11605,4.96875 -0.75089,1.4238281 -1.801253,2.5283203 -3.153501,3.31640621 -1.356211,0.78222657 -2.933988,1.171875 -4.738676,1.171875 z m -0.005,-3.55078121 c 1.608399,0 2.898225,-0.5273438 3.869479,-1.5820313 0.967291,-1.0605469 1.452266,-2.4638672 1.449582,-4.2070312 L 45.10872,-16.58328 c 0.0021,-1.749023 -0.481576,-3.146484 -1.454601,-4.195312 -0.968199,-1.054688 -2.256498,-1.582031 -3.864897,-1.582031 -1.602539,0 -2.892365,0.527343 -3.869478,1.582031 -0.972287,1.048828 -1.461225,2.446289 -1.463368,4.195312 l 3.19e-4,7.5117191 c 0.0027,1.743164 0.490365,3.1464843 1.468387,4.2070312 0.974058,1.0546875 2.262357,1.5820313 3.864896,1.5820313 z M 60.32852,-0.00124844 51.97529,-25.641873 h 3.914062 l 6.145373,20.0976558 6.171033,-20.0976558 h 3.914063 l -8.369426,25.64062456 z m 15.667969,0 0.0022,-25.64062456 h 3.597656 l -0.0022,25.64062456 z m 1.746094,0 -0.0057,-3.42187496 h 14.71875 l 0.0057,3.42187496 z m 8.66e-4,-11.02734356 -0.0037,-3.410156 h 12.785156 l 0.0037,3.410156 z m -0.0046,-11.191406 0.006,-3.421875 h 14.71875 l -0.006,3.421875 z M 105.98541,0.26828281 c -1.79004,0 -3.35737,-0.3984375 -4.69905,-1.1953125 C 99.950532,-1.7239047 98.913408,-2.8371859 98.177913,-4.2668734 97.438456,-5.7024203 97.069724,-7.3782016 97.068788,-9.2942172 l 3.04e-4,-7.0429688 c -0.0049,-1.921875 0.364134,-3.600586 1.103652,-5.039062 0.737105,-1.435547 1.777129,-2.548829 3.114216,-3.339844 1.3419,-0.796875 2.90934,-1.195313 4.69938,-1.195313 1.48242,0 2.8371,0.322266 4.06007,0.960938 1.22779,0.632812 2.2603,1.520508 3.09406,2.660156 0.83429,1.142578 1.39108,2.472656 1.67729,3.996094 h -3.67969 c -0.22374,-0.820313 -0.5964,-1.538086 -1.11849,-2.15625 -0.5245,-0.615235 -1.13898,-1.092774 -1.84585,-1.429688 -0.70204,-0.342773 -1.43271,-0.515625 -2.18857,-0.515625 -1.57031,0 -2.8374,0.556641 -3.79642,1.664063 -0.96144,1.110351 -1.44143,2.575195 -1.43996,4.394531 l -3e-4,7.0429688 c -9.5e-4,1.8222656 0.48,3.2871094 1.44285,4.3945313 0.95889,1.1015625 2.22495,1.6523437 3.79526,1.6523437 1.11621,0 2.1675,-0.3515625 3.15387,-1.0546875 0.99223,-0.703125 1.65914,-1.7226562 2.00365,-3.0585937 h 3.67969 c -0.29232,1.5322265 -0.85949,2.868164 -1.69565,4.0078125 -0.82978,1.1425781 -1.85633,2.0332031 -3.07965,2.67187496 -1.22435,0.6328125 -2.58067,0.94921875 -4.06309,0.94921875 z m 21.72949,0 c -1.81348,0 -3.39683,-0.38964843 -4.75351,-1.171875 -1.35185,-0.78808591 -2.39622,-1.89257811 -3.13947,-3.31640621 -0.74273,-1.4208985 -1.11664,-3.0761719 -1.12223,-4.96875 l 0.008,-7.2656246 c -0.002,-1.904297 0.37033,-3.56543 1.11398,-4.980469 0.74848,-1.420899 1.79643,-2.522461 3.14385,-3.304688 1.3538,-0.779297 2.93692,-1.171875 4.7504,-1.171875 1.80468,0 3.38562,0.392578 4.74179,1.171875 1.35668,0.782227 2.40638,1.883789 3.14912,3.304688 0.74756,1.415039 1.1225,3.076172 1.1243,4.980469 l -0.008,7.2656246 c 0.006,1.8925781 -0.36758,3.5478515 -1.11605,4.96875 -0.75089,1.4238281 -1.80126,2.5283203 -3.1535,3.31640621 -1.35621,0.78222657 -2.93399,1.171875 -4.73868,1.171875 z m -0.005,-3.55078121 c 1.60839,0 2.89822,-0.5273438 3.86947,-1.5820313 0.9673,-1.0605469 1.45227,-2.4638672 1.44959,-4.2070312 l -3.2e-4,-7.5117191 c 0.002,-1.749023 -0.48158,-3.146484 -1.4546,-4.195312 -0.9682,-1.054688 -2.2565,-1.582031 -3.8649,-1.582031 -1.60254,0 -2.89236,0.527343 -3.86948,1.582031 -0.97229,1.048828 -1.46122,2.446289 -1.46337,4.195312 l 3.2e-4,7.5117191 c 0.003,1.743164 0.49037,3.1464843 1.46839,4.2070312 0.97406,1.0546875 2.26236,1.5820313 3.8649,1.5820313 z m 0,0"
       style="fill:#000000;fill-opacity:1;fill-rule:nonzero;stroke:none"
       aria-label="MOVECO"
       transform="matrix(0.35277776,0,-0.06220514,0.35277776,121.5796,95.352203)"
       clip-path="url(#clipPath10)" />
  </g>
</svg>
