<?xml version="1.0" encoding="UTF-8" standalone="no"?>
<!-- Created with Inkscape (http://www.inkscape.org/) -->

<svg
   width="5.1678681mm"
   height="10.723445mm"
   viewBox="0 0 5.1678681 10.723445"
   version="1.1"
   id="svg1"
   inkscape:version="1.3.1 (9b9bdc1480, 2023-11-25, custom)"
   sodipodi:docname="t.svg"
   xmlns:inkscape="http://www.inkscape.org/namespaces/inkscape"
   xmlns:sodipodi="http://sodipodi.sourceforge.net/DTD/sodipodi-0.dtd"
   xmlns="http://www.w3.org/2000/svg"
   xmlns:svg="http://www.w3.org/2000/svg">
  <sodipodi:namedview
     id="namedview1"
     pagecolor="#ffffff"
     bordercolor="#000000"
     borderopacity="0.25"
     inkscape:showpageshadow="2"
     inkscape:pageopacity="0.0"
     inkscape:pagecheckerboard="0"
     inkscape:deskcolor="#d1d1d1"
     inkscape:document-units="mm"
     inkscape:zoom="0.74564394"
     inkscape:cx="38.892558"
     inkscape:cy="223.29693"
     inkscape:window-width="1920"
     inkscape:window-height="1025"
     inkscape:window-x="0"
     inkscape:window-y="0"
     inkscape:window-maximized="1"
     inkscape:current-layer="layer1" />
  <defs
     id="defs1" />
  <g
     inkscape:label="Layer 1"
     inkscape:groupmode="layer"
     id="layer1"
     transform="translate(-94.720835,-89.429166)">
    <path
       style="fill:#4db856;fill-opacity:1;stroke:none;stroke-width:0.0197765;stroke-linecap:butt;stroke-dasharray:none;stroke-opacity:1;paint-order:stroke fill markers"
       id="path160"
       d="m 95.596439,89.429166 c 0.147675,0.395986 0.262464,0.811334 0.340429,1.236027 0.02005,0.10922 0.03547,0.219633 0.0532,0.329449 0.06413,0.477401 0.09547,0.961112 0.09503,1.444849 -2.64e-4,0.300964 -0.008,0.410626 -0.02074,0.710883 -0.02646,0.642826 -0.179557,1.258165 -0.311671,1.876335 -0.121023,0.526629 -0.241197,1.053984 -0.329634,1.590413 -0.04698,0.304565 -0.119004,0.624089 -0.116261,0.936321 7.94e-4,0.07207 0.0085,0.143782 0.01278,0.215672 0.03107,0.310613 0.109386,0.609 0.251198,0.871509 0.08892,0.16461 0.141552,0.222736 0.250385,0.367059 0.05408,0.05619 0.104979,0.117271 0.162224,0.168571 0.06148,0.0551 0.126477,0.104537 0.193107,0.149855 0.308522,0.209849 0.614047,0.427513 0.931936,0.61537 0.08288,0.04898 0.176025,0.06671 0.265676,0.09237 0.273082,0.0781 0.33469,0.0737 0.61558,0.10697 0.406098,0.0352 0.809702,-0.0108 1.207825,-0.10606 0,0 -0.691851,-0.587205 -0.691851,-0.587205 v 0 c -0.143216,0.0394 -0.208018,0.06087 -0.358193,0.08565 -0.263382,0.04346 -0.52951,0.05177 -0.794649,0.02976 -0.283319,-0.04224 -0.341006,-0.03765 -0.616278,-0.131098 -0.09068,-0.03078 -0.334119,-0.190987 -0.267732,-0.109543 0.132493,0.162555 0.32086,0.238847 0.477017,0.36631 0.117864,0.09621 -0.476623,-0.329744 -0.3536,-0.28861 -0.04511,-0.05548 -0.09243,-0.108415 -0.135337,-0.166441 -0.216461,-0.292706 -0.343048,-0.611214 -0.383198,-1.003551 -0.0037,-0.06666 -0.01045,-0.133165 -0.01109,-0.199967 -0.0029,-0.313785 0.06134,-0.623872 0.100094,-0.931812 0.07569,-0.539745 0.183243,-1.072515 0.299903,-1.601037 0.07041,-0.311676 0.149772,-0.621535 0.207788,-0.937154 0.04597,-0.250118 0.06075,-0.367194 0.08267,-0.622493 0.0097,-0.112596 0.01572,-0.22561 0.02357,-0.338415 0.01254,-0.283163 0.02204,-0.433075 0.02318,-0.716955 0.0019,-0.486981 -0.03712,-0.973071 -0.08383,-1.456158 -0.0154,-0.110522 -0.02812,-0.221644 -0.04617,-0.331568 -0.06763,-0.411779 -0.175424,-0.812422 -0.276387,-1.213186 z" />
    <path
       style="fill:#4db856;fill-opacity:1;stroke:none;stroke-width:0.0189767;stroke-linecap:butt;stroke-dasharray:none;stroke-opacity:1;paint-order:stroke fill markers"
       id="path192"
       d="m 95.366765,93.535165 c 0.604949,0.03881 1.205693,0.138843 1.807355,0.219697 0.415309,0.05581 0.595744,0.07549 1.005827,0.123881 0.515607,0.0537 1.040077,0.101891 1.55462,0.0057 0.05173,-0.0097 0.102759,-0.0241 0.154136,-0.03616 0,0 -0.673677,-0.562964 -0.673677,-0.562964 v 0 c -0.138755,0.04102 -0.169582,0.05444 -0.321622,0.07828 -0.424701,0.06657 -0.855408,0.046 -1.281176,0.009 -0.459433,-0.04645 -0.518446,-0.04883 -0.989211,-0.111802 -0.635741,-0.08503 -1.268642,-0.196982 -1.902182,-0.302466 z" />
  </g>
</svg>
