<?xml version="1.0" encoding="UTF-8" standalone="no"?>
<!-- Created with Inkscape (http://www.inkscape.org/) -->

<svg
   width="18.110603mm"
   height="10.008742mm"
   viewBox="0 0 18.110604 10.008742"
   version="1.1"
   id="svg1"
   inkscape:version="1.3.1 (9b9bdc1480, 2023-11-25, custom)"
   sodipodi:docname="votre.svg"
   xmlns:inkscape="http://www.inkscape.org/namespaces/inkscape"
   xmlns:sodipodi="http://sodipodi.sourceforge.net/DTD/sodipodi-0.dtd"
   xmlns="http://www.w3.org/2000/svg"
   xmlns:svg="http://www.w3.org/2000/svg">
  <sodipodi:namedview
     id="namedview1"
     pagecolor="#ffffff"
     bordercolor="#000000"
     borderopacity="0.25"
     inkscape:showpageshadow="2"
     inkscape:pageopacity="0.0"
     inkscape:pagecheckerboard="0"
     inkscape:deskcolor="#d1d1d1"
     inkscape:document-units="mm"
     inkscape:zoom="8.4359982"
     inkscape:cx="14.343294"
     inkscape:cy="7.1716469"
     inkscape:window-width="1920"
     inkscape:window-height="1025"
     inkscape:window-x="0"
     inkscape:window-y="0"
     inkscape:window-maximized="1"
     inkscape:current-layer="layer1" />
  <defs
     id="defs1" />
  <g
     inkscape:label="Layer 1"
     inkscape:groupmode="layer"
     id="layer1"
     transform="translate(-95.169356,-137.58287)">
    <path
       style="fill:#4db856;fill-opacity:1;stroke:none;stroke-width:0.0250398;stroke-linecap:butt;stroke-dasharray:none;stroke-opacity:1;paint-order:stroke fill markers"
       id="path147"
       d="m 99.042453,142.11023 c 1.353677,-0.78295 1.811787,-1.21807 2.769287,-2.03806 0.11882,-0.10176 1.35991,-1.39663 1.45252,-1.52227 0.13661,-0.18309 0.47121,0.078 0.62113,-0.0945 0.0243,-0.028 0.14393,-0.16913 0.19693,-0.19257 0.0164,-0.007 0.0353,0.006 0.0529,0.009 -0.34878,-0.18116 -0.69409,-0.36913 -1.04632,-0.54345 -0.0194,-0.01 0.0367,0.0273 0.0444,0.0476 0.0142,0.0369 0.0153,0.0778 0.0188,0.11714 0.0424,0.46983 -0.0435,-0.25161 0.012,0.30458 0.006,0.0647 0.0187,0.12863 0.028,0.19295 0.25873,0.43261 0.63601,1.05582 0.81906,1.22637 2.39539,2.23195 5.9421,3.01473 9.03922,3.92109 0.0765,0.0228 0.15305,0.0456 0.22958,0.0683 l -0.91297,-0.70132 v 0 c -0.0695,-0.0172 -0.13896,-0.0343 -0.20844,-0.0515 -0.33101,-0.0796 -0.66369,-0.15343 -0.99348,-0.23796 -0.6067,-0.15552 -1.20712,-0.33496 -1.7989,-0.54028 -0.22441,-0.0803 -0.4496,-0.1584 -0.67323,-0.2408 -0.53344,-0.19656 -0.95243,-0.31484 -1.46254,-0.5727 -1.03566,-0.52354 -3.00435,-1.57187 -3.00998,-2.68943 0.002,-0.0628 0.009,-0.20198 0.0119,-0.26685 0.002,-0.04 0.0403,-0.0982 0.007,-0.11994 -0.35748,-0.23092 -0.75033,-0.40184 -1.1255,-0.60276 -0.0205,0.017 -0.0433,0.0315 -0.0613,0.0511 -0.0344,0.0374 -0.14564,0.19884 -0.16508,0.22592 -0.13293,0.18515 -0.26995,0.3673 -0.41052,0.54671 -0.29254,0.36295 -0.59431,0.7188 -0.94628,1.02663 -0.32175,0.31076 -0.63418,0.63153 -0.97078,0.92663 -0.32457,0.29084 -0.658602,0.57164 -1.009236,0.83076 -0.35247,0.24163 -0.71822,0.46841 -1.138788,0.56906 z"
       sodipodi:nodetypes="cscsscsscscscccscscsscsccsscccccc" />
    <g
       id="g153"
       transform="matrix(0.06225358,-0.01838049,0.01838049,0.06225358,68.910275,124.18686)">
      <path
         style="opacity:1;fill:#4db856;fill-opacity:1;stroke:none;stroke-width:0.3;stroke-linecap:butt;stroke-dasharray:none;stroke-opacity:1;paint-order:stroke fill markers"
         id="path148"
         d="m 293.79999,433.55643 c 2.82,6.5476 3.78623,13.7076 4.52189,20.74446 0.14368,1.58423 0.25153,3.17154 0.39255,4.756 0.0273,0.30628 -0.17273,0.76432 0.0938,0.9177 4.36055,2.50963 8.71491,5.13994 13.43897,6.87081 0.5784,0.21193 0.60619,-1.07309 0.88361,-1.6231 0.32286,-0.64006 0.61098,-1.29706 0.91647,-1.9456 3.28893,-6.44121 8.92787,-11.16281 14.79476,-15.19933 2.03553,-1.40048 4.16968,-2.6519 6.25452,-3.97785 5.30007,-3.12729 10.77392,-5.96987 16.44468,-8.36589 3.07933,-1.30108 6.2472,-2.38811 9.40913,-3.46663 1.38099,-0.47994 2.78953,-0.85354 4.21837,-1.15346 0,0 -12.07344,-8.24831 -12.07344,-8.24831 v 0 c -1.26274,0.49853 -2.49688,1.05811 -3.71128,1.66663 -2.82799,1.37776 -5.66958,2.73081 -8.42999,4.24228 -5.2552,2.8775 -10.33476,6.06317 -15.49281,9.10706 -3.67541,2.19322 -8.95666,5.27232 -12.53937,7.68695 -4.28593,2.88859 -8.50828,6.10158 -11.10252,10.66878 -0.36987,0.55516 -0.69769,1.14078 -1.10962,1.66549 -0.2185,0.27833 -1.0596,0.52533 -0.77084,0.72986 3.88448,2.75146 8.14949,4.92188 12.22424,7.38282 -0.25124,-0.25764 -0.6024,-0.44642 -0.75372,-0.77291 -0.48261,-1.04131 -0.92263,-4.13913 -1.07463,-5.0179 -1.08396,-6.82864 -2.01445,-13.68396 -3.31075,-20.47705 z" />
      <path
         style="opacity:1;fill:#4db856;fill-opacity:1;stroke:none;stroke-width:0.3;stroke-linecap:butt;stroke-dasharray:none;stroke-opacity:1;paint-order:stroke fill markers"
         id="path149"
         d="m 375.48021,429.33204 c -1.39857,0.1721 -2.80634,0.22426 -4.16984,0.62543 -2.57239,0.75686 -4.92551,2.05775 -7.27,3.32116 -4.53146,2.62656 -8.56983,6.02385 -12.12026,9.86329 -0.63238,0.68385 -1.2297,1.39931 -1.84454,2.09897 -2.23933,2.5918 -4.0346,5.53807 -5.39316,8.68016 -0.30877,0.71412 -0.62299,1.43055 -0.83953,2.17782 -0.23031,0.79476 -0.33092,1.62149 -0.49638,2.43224 -0.0371,0.826 -0.1434,1.6518 -0.11136,2.47802 0.0999,2.57498 0.79066,5.15935 2.16126,7.35487 1.30769,2.09475 1.97053,2.48279 3.77133,4.14902 6.4546,4.03155 12.84531,8.78345 20.40263,10.27818 1.07357,0.21234 2.15817,0.40608 3.25146,0.45467 2.62466,0.11666 4.13938,-0.28905 6.69752,-0.73443 1.07767,-0.4307 2.20071,-0.76177 3.233,-1.29209 1.06782,-0.54858 2.05495,-1.24484 3.04025,-1.93067 1.60988,-1.12058 3.88208,-2.93244 5.21282,-4.39327 1.86398,-2.04622 2.93147,-3.91156 4.43028,-6.22837 0.59035,-1.42451 1.24789,-2.82301 1.77106,-4.27355 0.7197,-1.99547 2.15943,-7.03188 2.69404,-9.15389 0.42953,-1.70491 1.36988,-5.93267 1.58724,-7.78694 0.13457,-1.14797 0.12034,-2.30853 0.18051,-3.46279 -0.27936,-3.74334 -0.84047,-6.42399 -3.53705,-9.23469 -0.91508,-0.95381 -2.03926,-1.68224 -3.05889,-2.52335 0,0 -12.31017,-4.91716 -12.31017,-4.91716 v 0 c 0.996,0.7188 2.07101,1.33921 2.98799,2.15641 2.76839,2.46716 3.5042,4.81151 3.94847,8.38594 0.009,1.12914 0.0877,2.25993 0.0262,3.38742 -0.12261,2.24596 -0.69789,5.71032 -1.15184,7.85685 -0.64824,3.06526 -1.41883,6.03599 -2.62201,8.93993 -0.55971,1.3509 -1.2991,2.62014 -1.94864,3.93022 -0.70646,1.03891 -1.35307,2.12115 -2.11938,3.11674 -2.51344,3.26552 -6.5125,6.90108 -10.2981,8.60311 -1.00257,0.45077 -2.08572,0.6951 -3.12858,1.04265 -1.05542,0.14663 -2.10257,0.37697 -3.16627,0.43988 -2.40363,0.14218 -4.12728,-0.0739 -6.45524,-0.64066 -1.04126,-0.2535 -3.91312,-1.60531 -3.0755,-0.93681 3.29612,2.63064 13.56154,8.03133 6.16239,4.08423 -1.8847,-1.48562 -2.43456,-1.70864 -3.8555,-3.64054 -1.92299,-2.6145 -2.57744,-5.7314 -2.40491,-8.92665 0.14256,-0.73885 0.23008,-1.49049 0.42768,-2.21657 0.34538,-1.26909 1.13519,-3.05932 1.70437,-4.22793 1.10482,-2.26837 2.44305,-4.39841 4.08522,-6.32041 1.48235,-1.78078 2.0373,-2.52741 3.69912,-4.18863 2.92155,-2.9205 6.21901,-5.45917 9.89292,-7.36251 1.90437,-0.88574 3.14768,-1.55812 5.15115,-2.14166 2.21901,-0.64632 4.5398,-0.80414 6.82709,-0.52221 z" />
      <path
         style="opacity:1;fill:#4db856;fill-opacity:1;stroke:none;stroke-width:0.3;stroke-linecap:butt;stroke-dasharray:none;stroke-opacity:1;paint-order:stroke fill markers"
         id="path150"
         d="m 414.65346,415.82469 c -0.5321,2.64808 -0.99784,5.31037 -1.5963,7.94424 -0.71754,3.15797 -1.48682,6.30559 -2.35066,9.4267 -1.62719,5.87916 -3.75923,11.99668 -5.56816,17.82843 -0.8903,2.8702 -3.39479,11.40999 -4.33127,14.59053 -1.06352,4.57983 -2.8986,9.01316 -3.247,13.74489 -0.14789,2.00851 -0.0806,4.26084 0.87229,6.11334 0.50183,0.97561 1.3294,1.74564 1.9941,2.61846 4.97395,2.91113 9.82634,6.04069 14.92184,8.73339 1.30439,0.6893 2.78811,0.97071 4.20692,1.37512 1.4173,0.40399 2.83994,0.81537 4.29516,1.04829 2.26803,0.36302 5.73739,0.46482 8.03212,-0.0231 1.22683,-0.26086 2.36771,-0.82864 3.55157,-1.24297 4.33329,-1.88194 7.71497,-5.19309 11.03706,-8.44893 0,0 -11.58402,-7.08785 -11.58402,-7.08785 v 0 c -0.71228,0.7478 -1.3947,1.52523 -2.13685,2.2434 -2.46655,2.38687 -5.1822,4.44515 -8.36469,5.78966 -1.10795,0.33792 -2.18448,0.805 -3.32385,1.01376 -3.90927,0.71626 -7.98201,-0.0216 -11.69791,-1.24942 -1.44417,-0.47717 -5.38967,-2.67353 -4.24589,-1.671 2.30367,2.01918 5.21962,3.208 7.82943,4.812 -0.7008,-0.70511 -1.54045,-1.29525 -2.1024,-2.11532 -1.18355,-1.72719 -1.43724,-3.75281 -1.51287,-5.77852 -0.18043,-4.83264 1.03285,-9.58024 1.75384,-14.31642 0.48171,-2.32178 0.91288,-4.65462 1.44514,-6.96534 1.2978,-5.63412 2.8405,-11.21792 4.48093,-16.76024 1.82887,-6.17899 3.73944,-12.2255 5.9275,-18.28752 0.88356,-2.44789 1.87498,-4.85549 2.81247,-7.28324 z" />
      <path
         style="opacity:1;fill:#4db856;fill-opacity:1;stroke:none;stroke-width:0.3;stroke-linecap:butt;stroke-dasharray:none;stroke-opacity:1;paint-order:stroke fill markers"
         id="path151"
         d="m 425.3657,457.11024 c 6.52785,-0.46235 13.07486,-0.2968 19.61164,-0.21625 0,0 -10.49544,-7.61008 -10.49544,-7.61008 v 0 c -6.68858,0.22013 -13.38593,0.2979 -20.06965,-0.13182 z" />
      <path
         style="opacity:1;fill:#4db856;fill-opacity:1;stroke:none;stroke-width:0.3;stroke-linecap:butt;stroke-dasharray:none;stroke-opacity:1;paint-order:stroke fill markers"
         id="path152"
         d="m 446.05313,459.48526 c -0.1705,1.26175 -0.28995,2.53145 -0.5115,3.78524 -0.28619,1.61963 -0.64853,3.22519 -1.01078,4.82952 -1.64208,7.27252 -3.85295,14.28072 -6.1259,21.37095 -1.1691,3.29093 -2.17291,6.6545 -3.56533,9.86342 -0.2147,0.49478 -0.43902,0.98819 -0.71563,1.45122 -0.0965,0.16159 -0.56025,0.31816 -0.39333,0.40516 4.39719,2.29167 8.95528,4.26043 13.43292,6.39065 1.15807,-3.43173 2.51838,-6.79293 3.59468,-10.25327 0.30782,-0.98963 0.58615,-1.9882 0.87923,-2.9823 1.3108,-4.64931 2.46624,-9.38216 4.53199,-13.77296 1.25763,-2.67313 1.65955,-3.08012 3.29866,-5.54845 0.89852,-1.00714 1.73598,-2.07227 2.69555,-3.02143 4.82914,-4.77675 10.58749,-8.17291 16.87343,-10.67167 1.73133,-0.68823 3.52113,-1.21913 5.2817,-1.82869 4.08887,-1.06766 6.40861,-1.80227 10.58813,-2.38898 4.55765,-0.63981 9.23071,-0.66485 13.79785,-0.0974 1.10199,0.13692 2.18756,0.38357 3.28134,0.57535 0.84564,0.26338 1.71232,0.46684 2.53691,0.79013 0.65083,0.25517 2.48559,1.27982 1.87492,0.93959 -3.60572,-2.00893 -7.14318,-4.15455 -10.86152,-5.94646 -0.45177,-0.21772 0.68882,0.73903 0.94738,1.16872 0.66724,1.10885 0.67379,1.74048 0.91465,2.98667 0.0142,0.54617 0.0284,1.09234 0.0426,1.63851 0,0 12.71352,6.49113 12.71352,6.49113 v 0 c 0.0238,-0.60799 0.0475,-1.21598 0.0713,-1.82397 -0.13418,-1.31714 -0.14376,-2.27881 -0.62599,-3.53471 -2.1051,-5.48251 -10.82892,-7.74486 -14.30546,-9.74645 -0.54845,-0.31577 -1.18418,-0.45462 -1.7969,-0.613 -0.77872,-0.20129 -1.57866,-0.30905 -2.36799,-0.46357 -1.02839,-0.0958 -2.0536,-0.23627 -3.08518,-0.28729 -4.45269,-0.22027 -9.00803,0.036 -13.40361,0.77101 -4.18296,0.69945 -6.48258,1.46308 -10.57889,2.60826 -4.17254,1.50373 -6.59231,2.25221 -10.60203,4.19819 -5.8731,2.85031 -11.06404,6.77877 -15.62254,11.43417 -0.64563,0.94791 -1.36139,1.85168 -1.93689,2.84373 -0.55331,0.9538 -0.9985,1.96771 -1.44035,2.97798 -1.94947,4.45735 -3.00891,9.21959 -4.7534,13.75217 -0.93261,2.51015 -1.84292,5.02758 -2.85716,7.50634 -0.59837,1.46239 -0.94839,2.35906 -1.70486,3.72244 -0.23361,0.42104 -0.51211,0.81555 -0.76817,1.22332 4.23376,2.5702 8.46628,5.14243 12.70128,7.71059 0.13927,0.0845 -0.40548,-0.0968 -0.41407,-0.25946 -0.0304,-0.57681 0.19536,-1.13877 0.31043,-1.70479 0.71384,-3.51113 1.60078,-6.98551 2.51143,-10.44957 1.95338,-7.15398 3.96944,-14.2836 6.24798,-21.34211 0.493,-1.5272 0.97004,-3.06031 1.51223,-4.57076 0.41127,-1.14577 0.89797,-2.26305 1.34696,-3.39457 z" />
      <path
         style="opacity:1;fill:#4db856;fill-opacity:1;stroke:none;stroke-width:0.3;stroke-linecap:butt;stroke-dasharray:none;stroke-opacity:1;paint-order:stroke fill markers"
         id="path153"
         d="m 494.0825,490.68695 c 0.24216,0.10056 0.48949,0.18949 0.72648,0.30169 3.84375,1.81977 -2.4941,-1.05658 2.54033,1.26137 2.25947,1.0403 4.48673,1.91844 6.83153,2.74696 2.48032,0.7192 5.00605,1.39623 7.58827,1.63157 0.77563,0.0707 1.55951,0.14366 2.33533,0.0751 1.66709,-0.14744 3.06922,-0.72795 4.63091,-1.25917 2.38721,-1.13911 4.68236,-2.56778 6.03401,-4.92502 0.66165,-1.15391 0.81455,-1.93247 1.18713,-3.18825 0.59943,-2.9843 0.97099,-6.10311 -0.82748,-8.79869 -0.45385,-0.68024 -1.06927,-1.23754 -1.60391,-1.85632 -5.97432,-4.56971 -3.72109,-2.99794 -16.27232,-9.5431 -1.04245,-0.54361 -4.00351,-1.10938 -5.16348,-1.19569 -2.36357,-0.17586 -3.05758,0.106 -5.39767,0.52664 -0.90086,0.23117 -1.81525,0.41491 -2.70259,0.69352 -3.333,1.04653 -6.85731,2.87754 -9.62048,5.02035 -0.68151,0.5285 -1.30477,1.12812 -1.95716,1.69218 -2.25463,2.15593 -4.11598,4.68748 -5.28458,7.59236 -0.61789,1.53595 -0.74581,2.29964 -1.13752,3.89611 -0.391,2.00071 -0.95792,3.9748 -1.17092,6.00722 -0.10805,1.03095 -0.11166,1.6449 -0.14918,2.68752 0.0864,2.16721 0.19533,4.36604 0.78535,6.4677 0.41806,1.48911 0.68332,1.93141 1.31981,3.33309 1.62711,3.08062 4.072,5.73278 6.87621,7.79464 0.75305,0.55369 1.55745,1.0339 2.33618,1.55085 5.02688,2.72976 9.94878,5.66242 15.08066,8.18929 1.63005,0.80262 7.83952,2.1977 9.32258,2.53085 5.09206,1.14386 10.21524,2.03944 15.36378,2.88051 5.1375,0.89177 10.3276,1.46924 15.46273,2.36658 0,0 -11.34184,-8.48396 -11.34184,-8.48396 v 0 c -4.78703,-0.49099 -9.58606,-0.87488 -14.35193,-1.55967 -5.04996,-0.74296 -10.08678,-1.53779 -15.04044,-2.79837 -1.80148,-0.45843 -3.59354,-0.95986 -5.36152,-1.53409 -1.50473,-0.48874 -5.6167,-2.72042 -4.44939,-1.65248 2.3651,2.16376 5.45094,3.37482 8.17642,5.06222 -0.74411,-0.45247 -1.51051,-0.87016 -2.23232,-1.35741 -2.19385,-1.48093 -4.36285,-3.52584 -5.93032,-5.66895 -0.33353,-0.45601 -0.60959,-0.95139 -0.91438,-1.42709 -0.62146,-1.17564 -0.98979,-1.74736 -1.40072,-3.01268 -0.63195,-1.94585 -0.83456,-4.03114 -0.84614,-6.06428 0.13472,-2.87874 0.33826,-5.76476 0.93195,-8.59131 0.30286,-1.34065 0.49752,-2.39383 0.96347,-3.69171 0.99045,-2.75888 2.67355,-5.13839 4.77626,-7.16538 0.62795,-0.5264 1.23361,-1.08059 1.88386,-1.57918 3.48165,-2.66965 7.55735,-4.44439 11.86719,-5.23596 0.90062,-0.0873 1.79722,-0.2431 2.70187,-0.26184 1.6945,-0.0351 3.328,0.21303 4.94976,0.69535 0.84622,0.25168 3.21143,1.42161 2.48213,0.92408 -2.39855,-1.6363 -14.37941,-8.66587 -7.48112,-4.46174 1.33447,1.19512 1.83241,1.37688 2.57637,2.97802 0.91277,1.96448 0.52164,4.15115 0.18041,6.19064 -0.30056,1.14769 -0.37856,1.72771 -0.94551,2.78038 -1.13001,2.09812 -3.11695,3.38463 -5.24679,4.31261 -1.92158,0.55084 -2.33141,0.80091 -4.36189,0.84477 -3.25542,0.0703 -6.45306,-0.99348 -9.518,-1.93617 -0.81932,-0.31845 -1.64727,-0.61553 -2.45795,-0.95537 -2.87299,-1.20434 -5.5999,-2.71316 -8.36961,-4.13008 z" />
    </g>
  </g>
</svg>
